<svg width="582" height="642" viewBox="0 0 582 642" fill="none" xmlns="http://www.w3.org/2000/svg">
<rect width="582" height="642" fill="white"/>
<path d="M470.248 505.934H470.084V81.418C470.084 72.351 462.733 65 453.666 65H128.334C119.268 65 111.916 72.351 111.916 81.418V505.934H59.905L59.584 505.93V505.934H59.424V576.621V576.836V577H522.576V505.934H470.248V505.934ZM414.982 231.742H373.654V151.383H414.982V231.742V231.742ZM414.982 344.641H373.654V264.282H414.982V344.641V344.641ZM373.654 422.309V389.016H414.982V422.309H373.748H373.654ZM325.44 151.383V231.742H256.611H256.561V151.383H325.389H325.44ZM256.561 344.641V264.282H325.44V344.641H256.611H256.561ZM325.44 389.016V533.375H256.561V389.016H325.44ZM167.018 422.309V389.016H208.346V422.309H167.112H167.018ZM208.346 344.641H167.018V264.282H208.346V344.555V344.641ZM208.346 231.742H167.018V151.383H208.346V231.656V231.742Z" fill="#374149"/>
</svg>
