<svg width="256" height="257" viewBox="0 0 256 257" fill="none" xmlns="http://www.w3.org/2000/svg">
<path fill-rule="evenodd" clip-rule="evenodd" d="M256 241.873C256 249.675 249.673 256.002 241.871 256.002H176.635V156.865H209.912L214.894 118.229H176.635V93.5619C176.635 82.3758 179.741 74.7532 195.783 74.7532L216.242 74.7436V40.188C212.703 39.718 200.558 38.6657 186.43 38.6657C156.932 38.6657 136.738 56.6706 136.738 89.7366V118.229H103.377V156.865H136.738V256.002H14.1288C6.32391 256.002 0 249.675 0 241.873V14.1298C0 6.32486 6.32391 0 14.1288 0H241.871C249.673 0 256 6.32486 256 14.1298V241.873Z" fill="#212121"/>
</svg>
