<svg width="256" height="209" viewBox="0 0 256 209" fill="none" xmlns="http://www.w3.org/2000/svg">
<path d="M256 24.6272C246.582 28.8052 236.458 31.6276 225.835 32.8973C236.678 26.3975 245.007 16.105 248.928 3.84003C238.779 9.85987 227.539 14.2298 215.575 16.585C205.995 6.37696 192.345 0 177.239 0C148.234 0 124.717 23.5149 124.717 52.5198C124.717 56.6362 125.181 60.6452 126.077 64.4891C82.4266 62.299 43.727 41.3889 17.8223 9.61281C13.3014 17.3696 10.7106 26.3911 10.7106 36.0167C10.7106 54.2388 19.983 70.3143 34.0758 79.7326C25.4665 79.46 17.3679 77.0971 10.2869 73.1636C10.281 73.3825 10.281 73.6027 10.281 73.8241C10.281 99.2706 28.3853 120.497 52.4123 125.325C48.0052 126.526 43.3652 127.167 38.5754 127.167C35.1911 127.167 31.9015 126.837 28.6938 126.225C35.378 147.09 54.7739 162.275 77.7576 162.697C59.7825 176.785 37.1367 185.182 12.5287 185.182C8.28929 185.182 4.10881 184.932 0 184.447C23.2436 199.35 50.8506 208.045 80.5109 208.045C177.116 208.045 229.946 128.016 229.946 58.6087C229.946 56.3316 229.895 54.0673 229.794 51.8132C240.054 44.4097 248.958 35.1604 255.999 24.6272H256Z" fill="#1F2D3D"/>
</svg>
